<svg width="41" height="41" fill="none" xmlns="http://www.w3.org/2000/svg"><circle cx="20.5" cy="20.5" r="20.5" fill="#000"/><path d="M15.8 23.637h9.563a.527.527 0 00.507-.383l2.11-7.383a.527.527 0 00-.507-.672h-12.89l-.377-1.696a.528.528 0 00-.515-.413h-3.164a.527.527 0 000 1.055h2.741l1.904 8.567c-.56.244-.953.803-.953 1.452 0 .872.71 1.582 1.582 1.582h9.562a.527.527 0 100-1.055h-9.562a.528.528 0 01-.002-1.054zm10.973-7.383l-1.808 6.328h-8.741l-1.406-6.328h11.955z" fill="#fff"/><path d="M15.273 27.328c0 .872.71 1.582 1.582 1.582.873 0 1.582-.71 1.582-1.582 0-.872-.71-1.582-1.582-1.582-.872 0-1.582.71-1.582 1.582zm1.582-.527a.528.528 0 110 1.056.528.528 0 010-1.056zm5.872.527c0 .872.71 1.582 1.582 1.582.872 0 1.582-.71 1.582-1.582 0-.872-.71-1.582-1.582-1.582-.873 0-1.582.71-1.582 1.582zm1.582-.527a.528.528 0 11-.002 1.056.528.528 0 01.002-1.056z" fill="#fff"/></svg>