<svg width="158" height="80" fill="none" xmlns="http://www.w3.org/2000/svg"><g filter="url(#filter0_d_1_24)"><path d="M15 17a7 7 0 017-7h32a7 7 0 017 7v32a7 7 0 01-7 7H37.233c-1.416 0-2.76.623-3.675 1.705l-.414.489c-1.838 2.171-5.236 2.007-6.855-.332A4.323 4.323 0 0022.735 56h-1.173A6.562 6.562 0 0115 49.438V17z" fill="#000"/></g><g clip-path="url(#clip0_1_24)" fill="#F4CB38"><path d="M42.311 33.59a6.35 6.35 0 00-4.808-3.785 6.35 6.35 0 00-5.782 2.006l-3.534 3.898a4.009 4.009 0 00-1.027 2.317 4.01 4.01 0 00.556 2.473 4.01 4.01 0 001.922 1.653 4.009 4.009 0 002.529.181l.057-.014a7.935 7.935 0 016.227 1.07 4.014 4.014 0 002.448.655 4.01 4.01 0 002.357-.934 4.008 4.008 0 001.334-2.155 4.01 4.01 0 00-.213-2.526l-2.066-4.839zm-12.635-2.129c.887-.18 1.633-.745 2.1-1.59.445-.806.582-1.776.388-2.732-.196-.956-.702-1.795-1.426-2.363-.76-.595-1.668-.824-2.553-.643-1.782.362-2.897 2.301-2.486 4.323.328 1.61 1.527 2.792 2.902 3.023.35.06.713.056 1.075-.018zm6.009-2.509c2.092.351 4.12-1.302 4.52-3.685.4-2.384-.975-4.61-3.067-4.96-2.092-.352-4.12 1.301-4.52 3.685-.4 2.383.975 4.608 3.067 4.96zm6.374 2.162c.304.161.623.268.95.322 1.526.257 3.2-.604 4.053-2.215.492-.927.645-1.97.431-2.934-.224-1.01-.818-1.816-1.672-2.27-.855-.452-1.855-.491-2.817-.11-.918.365-1.695 1.077-2.186 2.005-1.037 1.956-.48 4.29 1.24 5.203zm8.074.839v-.001c-1.264-1.308-3.5-1.209-4.984.222-1.483 1.431-1.663 3.66-.402 4.97.46.477 1.05.767 1.685.874 1.107.186 2.354-.186 3.298-1.096 1.484-1.431 1.664-3.66.403-4.97z"/></g><path d="M78.576 39v-2.61l7.02-8.172.522 1.476h-7.362V26.4h11.106v2.61l-7.02 8.172-.522-1.476h7.83V39H78.576zm17.163 0l-4.032-12.6h4.374l3.258 10.638h-2.196L100.6 26.4h3.906l3.222 10.638h-2.106l3.402-10.638h4.032L109.023 39h-4.554l-2.628-8.712h1.224L100.293 39h-4.554zm23.318-7.92h5.616v3.06h-5.616v-3.06zm.288 4.716h6.3V39h-10.476V26.4h10.242v3.204h-6.066v6.192zM128.45 39V26.4h6.066c1.176 0 2.19.192 3.042.576.864.384 1.53.936 1.998 1.656.468.708.702 1.548.702 2.52s-.234 1.812-.702 2.52c-.468.696-1.134 1.23-1.998 1.602-.852.372-1.866.558-3.042.558h-3.708l1.89-1.746V39h-4.248zm7.542 0l-3.096-4.59h4.5l3.132 4.59h-4.536zm-3.294-4.446l-1.89-1.926h3.438c.588 0 1.02-.132 1.296-.396.288-.264.432-.624.432-1.08 0-.456-.144-.816-.432-1.08-.276-.264-.708-.396-1.296-.396h-3.438l1.89-1.926v6.804zm16.94 4.734a8.136 8.136 0 01-2.844-.486 6.781 6.781 0 01-2.25-1.368 6.541 6.541 0 01-1.494-2.106 6.545 6.545 0 01-.522-2.628c0-.96.174-1.836.522-2.628a6.34 6.34 0 011.494-2.088 6.63 6.63 0 012.25-1.386 8.136 8.136 0 012.844-.486c1.032 0 1.98.162 2.844.486a6.63 6.63 0 012.25 1.386 6.124 6.124 0 011.476 2.088c.36.792.54 1.668.54 2.628 0 .948-.18 1.824-.54 2.628a6.313 6.313 0 01-1.476 2.106 6.781 6.781 0 01-2.25 1.368c-.864.324-1.812.486-2.844.486zm0-3.438c.396 0 .762-.072 1.098-.216.348-.144.648-.348.9-.612.264-.276.468-.606.612-.99.144-.396.216-.84.216-1.332 0-.492-.072-.93-.216-1.314a2.663 2.663 0 00-.612-.99 2.496 2.496 0 00-.9-.63 2.758 2.758 0 00-1.098-.216 2.89 2.89 0 00-1.116.216 2.72 2.72 0 00-.9.63c-.252.264-.45.594-.594.99a3.725 3.725 0 00-.216 1.314c0 .492.072.936.216 1.332.144.384.342.714.594.99.264.264.564.468.9.612.348.144.72.216 1.116.216z" fill="#000"/><defs><clipPath id="clip0_1_24"><path fill="#fff" transform="rotate(9.539 -88.21 172.345)" d="M0 0h26.189v26.189H0z"/></clipPath><filter id="filter0_d_1_24" x="0" y="0" width="76" height="79.725" filterUnits="userSpaceOnUse" color-interpolation-filters="sRGB"><feFlood flood-opacity="0" result="BackgroundImageFix"/><feColorMatrix in="SourceAlpha" values="0 0 0 0 0 0 0 0 0 0 0 0 0 0 0 0 0 0 127 0" result="hardAlpha"/><feOffset dy="5"/><feGaussianBlur stdDeviation="7.5"/><feColorMatrix values="0 0 0 0 0 0 0 0 0 0 0 0 0 0 0 0 0 0 0.33 0"/><feBlend in2="BackgroundImageFix" result="effect1_dropShadow_1_24"/><feBlend in="SourceGraphic" in2="effect1_dropShadow_1_24" result="shape"/></filter></defs></svg>